<?xml version="1.0" encoding="UTF-8" standalone="no"?>
<svg
   xmlns:dc="http://purl.org/dc/elements/1.1/"
   xmlns:cc="http://creativecommons.org/ns#"
   xmlns:rdf="http://www.w3.org/1999/02/22-rdf-syntax-ns#"
   xmlns:svg="http://www.w3.org/2000/svg"
   xmlns="http://www.w3.org/2000/svg"
   xmlns:xlink="http://www.w3.org/1999/xlink"
   xmlns:sodipodi="http://sodipodi.sourceforge.net/DTD/sodipodi-0.dtd"
   xmlns:inkscape="http://www.inkscape.org/namespaces/inkscape"
   version="1.1"
   x="0px"
   y="0px"
   viewBox="0 0 1094.1002 775"
   xml:space="preserve"
   id="svg85"
   sodipodi:docname="extra_info.svg"
   width="1094.1002"
   height="775"
   inkscape:version="1.0.2 (e86c870879, 2021-01-15)"><metadata
   id="metadata91"><rdf:RDF><cc:Work
       rdf:about=""><dc:format>image/svg+xml</dc:format><dc:type
         rdf:resource="http://purl.org/dc/dcmitype/StillImage" /><dc:title></dc:title></cc:Work></rdf:RDF></metadata><defs
   id="defs89" /><sodipodi:namedview
   pagecolor="#ffffff"
   bordercolor="#666666"
   borderopacity="1"
   objecttolerance="10"
   gridtolerance="10"
   guidetolerance="10"
   inkscape:pageopacity="0"
   inkscape:pageshadow="2"
   inkscape:window-width="1920"
   inkscape:window-height="1029"
   id="namedview87"
   showgrid="false"
   inkscape:zoom="0.53192726"
   inkscape:cx="676.06876"
   inkscape:cy="650.88352"
   inkscape:window-x="0"
   inkscape:window-y="25"
   inkscape:window-maximized="1"
   inkscape:current-layer="Layer_2"
   fit-margin-top="0"
   fit-margin-left="0"
   fit-margin-right="0"
   fit-margin-bottom="0" />
<style
   type="text/css"
   id="style2">
	.st0{display:none;}
	.st1{display:inline;fill:#E3D3BA;}
	.st2{display:inline;fill:#FFFFFF;}
	.st3{display:inline;}
	.st4{display:inline;fill:#808080;}
	.st5{fill:#B3B3B3;}
</style>
<path
   style="fill:#07529a;fill-opacity:1;stroke:none;stroke-width:1px;stroke-linecap:butt;stroke-linejoin:miter;stroke-opacity:1"
   d="M 330.63307,157.79819 551.04351,382.54916 770.6485,156.78124 Z"
   id="path1082" /><path
   style="fill:#d0d0d0;fill-opacity:1;stroke:none;stroke-width:1px;stroke-linecap:butt;stroke-linejoin:miter;stroke-opacity:1"
   d="M 140.18338,169.32263 313.036,157.54417 541.04372,384.15629 783.7909,162.05763 l 171.743,1.30568 -404.57015,381.57866 z"
   id="path1084"
   sodipodi:nodetypes="ccccccc" /><path
   style="fill:#d0d0d0;fill-opacity:1;stroke:none;stroke-width:1px;stroke-linecap:butt;stroke-linejoin:miter;stroke-opacity:1"
   d="M 956.6478,178.77243 664.46365,451.24117 c -28.46743,68.08318 -23.7341,157.38212 -110.14003,226.59093 106.00193,83.14912 205.54698,77.08769 304.10148,57.33924 63.2356,-43.28809 129.7424,-62.28813 184.515,-168.41239 52.0007,-160.2792 22.0053,-289.13621 -86.2923,-387.98652 z"
   id="path1060-6"
   sodipodi:nodetypes="cccccc" /><path
   style="fill:#d0d0d0;fill-opacity:1;stroke:none;stroke-width:1px;stroke-linecap:butt;stroke-linejoin:miter;stroke-opacity:1"
   d="m 136.40406,177.05495 292.18407,272.46874 c 28.46748,68.08318 23.73412,157.38212 110.14001,226.59093 C 432.72628,759.26374 333.18122,753.20231 234.62678,733.45386 171.39115,690.16577 104.8843,671.16573 50.11174,565.04147 -1.88895,404.76227 28.1064,275.90526 136.40406,177.05495 Z"
   id="path1060"
   sodipodi:nodetypes="cccccc" /><path
   style="fill:#07529a;fill-opacity:1;stroke:none;stroke-width:1px;stroke-linecap:butt;stroke-linejoin:miter;stroke-opacity:1"
   d="m 472.16852,493.17434 65.38854,57.12007 85.5273,-59.44191 31.79296,30.35889 C 636.35443,590.71263 607.032,645.72838 554.82704,670.05166 501.22976,633.70927 467.48391,579.29015 435.63288,523.1456 Z"
   id="path1058"
   sodipodi:nodetypes="ccccccc" /><path
   style="fill:#eab90c;fill-opacity:1;stroke:none;stroke-width:1px;stroke-linecap:butt;stroke-linejoin:miter;stroke-opacity:1"
   d="m 267.48351,298.74587 169.26721,166.5341 -1.11784,57.86563 c -48.58197,20.63462 -85.13497,45.65113 -144.69877,27.09572 -63.3002,-20.58741 -69.3995,-70.2753 -93.8544,-110.62491 3.3504,-84.32254 41.8038,-103.44588 70.4038,-140.87054 z"
   id="path1036-3"
   sodipodi:nodetypes="cccccc" /><path
   style="fill:#eab90c;fill-opacity:1;stroke:none;stroke-width:1px;stroke-linecap:butt;stroke-linejoin:miter;stroke-opacity:1"
   d="m 838.408,298.07202 -169.26721,166.5341 1.11784,57.86563 c 48.58197,20.63462 85.13497,45.65113 144.69877,27.09572 63.3002,-20.58741 69.3995,-70.2753 93.8544,-110.62491 C 905.4614,354.62002 867.008,335.49668 838.408,298.07202 Z"
   id="path1036"
   sodipodi:nodetypes="cccccc" /><g
   id="Layer_1"
   class="st0"
   transform="translate(-316.9,-105)">
	<path
   class="st1"
   d="m 1387.3,439.4 c -2.6,4.2 -5.2,10 -10.7,11 -123.9,-18.7 -255.2,108.4 -305.2,140.4 0.4,8.1 1,17.5 1.7,28.8 3.2,59.9 -6.8,86.5 -40.1,136.3 -33.3,49.9 -170,159 -170,159 0,0 -136.1,-109.5 -169.3,-159.4 -33.2,-49.9 -43.1,-76.6 -39.7,-136.4 0.9,-16.3 1.8,-28.4 2.2,-38.7 C 601.8,541.8 470.7,433.8 373.5,449 c -83.1,16.9 -34,-17.1 -1.6,-27.2 28.1,-8.8 80.6,-6.7 117.4,8.6 53.5,22.3 103.2,53.2 153.7,81.9 12.2,6.9 24.5,13.7 36.9,20.2 53.4,25.9 121.3,36.9 194.9,37 58.4,0.1 125.4,0.3 195.1,-36.5 3,-1.6 6,-3.1 8.9,-4.7 60.3,-32.8 116.6,-76 182,-96.9 35.9,-10.9 80.5,-18.3 117.4,-8.2 v 0 c 4.9,3.2 10.4,9.1 9.1,16.2 z"
   id="path4" />
	<path
   class="st2"
   d="m 904.3,610.7 c 0,0 0,0 0,0 0,31.9 25.8,57.8 57.7,57.8 31.9,0 57.7,-25.8 57.7,-57.7 0,-22.9 -13.4,-42.6 -32.7,-51.9 l 23,-14.4 c 20.5,14.9 33.9,39.1 33.9,66.4 0,45.2 -36.7,81.9 -81.9,81.9 -40.4,0 -73.9,-29.2 -80.7,-67.6 z"
   id="path6" />
	<path
   class="st2"
   d="m 846.6,625.1 c -6.8,38.4 -40.3,67.6 -80.7,67.6 -45.2,0 -81.9,-36.7 -81.9,-81.9 0,-27.3 13.4,-51.5 33.9,-66.4 l 4.2,2.6 18.4,11.5 c 0,0.1 0,0.2 0,0.4 0.1,0.8 0.2,1.6 0.2,2.5 0,8.2 -6.7,14.9 -14.9,14.9 -1.9,0 -3.7,-0.4 -5.4,-1 -7.7,9.8 -12.3,22.1 -12.3,35.5 0,31.9 25.8,57.7 57.7,57.7 31.9,0 57.7,-25.8 57.7,-57.7 v 0 z"
   id="path8" />
	<path
   class="st2"
   d="m 885.1,721 c 0,0 -12.5,50 -25.1,75 -12.5,-25 -25,-75 -25,-75 0,-25.1 25.1,-29.2 25.1,-29.2 0,0 25,4.1 25,29.2 z"
   id="path10" />
	<g
   class="st3"
   id="g13">
		
			<image
   style="overflow:visible"
   width="512"
   height="512"
   id="wsHXHb"
   xlink:href="file:///tmp/mozilla_boes0/58F8537AECE79F56.jpg"
   transform="matrix(1.0137,0,0,1.0293,1392,781)">
		</image>
	</g>
	
		<image
   style="display:inline;overflow:visible"
   width="308"
   height="216"
   xlink:href="file:///Desktop/Screen%20Shot%202018-02-06%20at%204.12.58%20PM.png"
   transform="matrix(1.4026,0,0,1.4026,639,-2.8831)"
   id="image15">
	</image>
	<g
   id="_x35_Yfwq5.tif"
   class="st3">
		
			<image
   style="overflow:visible"
   width="2032"
   height="2029"
   id="Layer_0"
   xlink:href="file:///tmp/mozilla_boes0/58F8537AECE79F5A.png"
   transform="matrix(0.24,0,0,0.24,1392,-14)">
		</image>
	</g>
	<path
   class="st3"
   d="m 370.2,553.7 c 10.9,5.2 18.7,13.8 24.9,23.7 16.9,26.6 9.9,60.5 -16.3,81.5 -22.7,18.2 -48.8,24.8 -77.3,24 -26.3,-0.7 -49.8,-8.8 -70.2,-25.8 -31.6,-26.5 -30.8,-70.9 0.1,-96.4 11.7,-9.7 24.6,-17 39.3,-21.1 1.6,-0.4 3.3,-0.5 4.9,-0.8 -1.3,0.6 -2.6,1.3 -4,1.7 -13,3.7 -24.7,9.9 -35.3,18.3 -2,1.6 -3.8,3.5 -5.6,5.2 0.3,0.6 0.6,1.1 0.9,1.7 3,-1.3 6.6,-2 8.9,-4.1 33.2,-30.1 100.2,-30.3 133.7,0.9 1.9,1.7 5,2.1 7.6,3.1 0.3,-0.6 0.6,-1.1 0.9,-1.7 -4.2,-3.3 -8.3,-6.8 -12.5,-10.2 z m -54.6,25 c -0.6,0.6 -1.6,1.1 -1.7,1.7 -0.2,1.2 -0.2,2.8 0.4,3.7 0.4,0.6 2.9,0.5 3.2,0.1 0.6,-1.1 0.6,-2.6 0.3,-3.9 -0.2,-0.7 -1.5,-1.1 -2.3,-1.6 6.8,-7.2 8,-7.1 11.7,0.5 0.1,0.2 0.5,0.2 1.2,0.3 0.9,-1.6 2,-3.3 2.9,-5 6,-11.4 14.6,-17.4 28,-13.7 1.4,0.4 2.9,0.1 5.2,0.1 -31.2,-25.9 -91.5,-22 -115.1,0.5 3,-0.4 5.2,-0.6 7.4,-1 10.6,-2.3 18.5,1.2 23.7,10.8 1.6,3 3.7,5.7 5.4,8.4 2,-2.5 3.8,-4.7 5.6,-6.9 2.8,2.2 4.9,3.8 6.1,4.8 -0.9,2.4 -1.6,4.1 -2,5.9 0,0.2 2.6,1.6 3.1,1.2 4.4,-3.7 4.6,0.3 5.9,2.8 0.5,1.1 1.3,2 2.5,3.8 1.2,-2.2 1.8,-3.7 2.7,-4.9 1.9,-2.7 3.9,-5.1 5.8,-7.6 z m 71,-2.4 c 0.1,-0.7 0.2,-1.4 0.3,-2.1 -8.4,-2.8 -16.9,-5.4 -26,-5.8 -8.2,-0.3 -14.1,2.9 -18.3,9.8 -6.5,10.5 -9.4,22.3 -12.7,34 -1.9,6.7 -4.6,13.7 -8.7,19.3 -8.1,10.9 -21.2,10.9 -29,-0.3 -4.2,-6.1 -6.2,-13.8 -8.9,-20.8 -4,-10.5 -7.4,-21.3 -11.9,-31.6 -2.3,-5.4 -6.8,-9.6 -13.3,-10.2 -10.7,-1 -20.8,1.6 -30.7,5.4 -0.3,0.1 -0.4,0.8 -1.2,2.7 7.1,-1.3 13.2,-2.3 19.3,-3.6 12,-2.6 19.7,0.4 24.3,11.7 4.5,11.1 7.3,22.8 10.8,34.2 0,0.1 -0.4,0.4 -0.8,0.8 -4.1,-3 -8.3,-5.9 -12.4,-9.1 -6.1,-4.7 -7.1,-2.9 -2.6,-11.3 0.3,-0.6 0.2,-1.4 0.4,-2.5 -3.4,2.1 -6.3,5.1 -9.3,5.2 -3,0.2 -6.2,-2.5 -11.1,-4.8 3.8,-2.9 6.6,-5.1 9.4,-7.3 -5,1.1 -9.1,4.1 -13.6,4.8 -4.5,0.7 -9.3,-1 -14.4,-1.7 -2.6,9.4 -1.5,18.5 2.3,27.3 7.9,18.2 23,28.2 40.5,35.8 3.8,1.6 6,0.8 7.5,-2.7 3.3,-7.3 6.5,-14.7 9.2,-20.8 4.3,3.9 9.2,8.5 14.3,12.9 4.5,3.9 9.3,3.5 13.6,-0.1 5.1,-4.2 9.8,-8.7 14.8,-13.2 0.6,2.2 1.1,5 2.2,7.5 2.2,5.2 4.6,10.3 7.3,15.2 0.7,1.2 3.5,2.4 4.7,1.9 16.4,-6.2 30.8,-15.3 40,-30.8 5.9,-10 7.9,-21 5.1,-32.8 -5,0.7 -9.9,2.5 -14.4,1.8 -4.6,-0.7 -8.8,-3.9 -13.2,-6 -0.4,0.5 -0.8,1 -1.2,1.5 2.9,2.3 5.8,4.7 8.5,6.8 -6.7,6.3 -12.8,5.5 -18.7,-0.4 0.7,2.6 1.7,4.5 2.4,6.5 0.4,1.1 0.6,3.1 0.1,3.5 -5.8,4.5 -11.7,8.7 -17.6,13.1 1.9,-9.9 4.6,-19 7.4,-28 4.9,-15.6 12.8,-24 32.3,-17.8 4.2,1.4 8.8,1.4 13.3,2 z M 241.9,583 c -0.1,-0.5 -0.2,-0.9 -0.3,-1.4 -7.9,1.5 -15.9,2.9 -23.8,4.7 -1.3,0.3 -2.7,2.3 -3.1,3.8 -3.8,13.4 -2.8,26.5 3.8,38.8 9.8,18.5 26.1,29.4 44.9,37 4.9,2 5.8,1.5 7.6,-4.3 -11.5,-3.4 -22,-8.7 -30.7,-16.9 -14.3,-13.5 -22.7,-29.4 -20.2,-49.7 0.4,-2.9 1.7,-4.3 4.3,-5.2 5.9,-2.2 11.7,-4.6 17.5,-6.8 z m 130.6,-1 c -0.1,0.3 -0.2,0.6 -0.3,0.9 0.9,0.5 1.8,1.1 2.8,1.5 5.1,2 10.3,3.7 15.3,6 1.5,0.7 3.4,2.7 3.4,4 -0.4,7.9 0.1,16.2 -2.3,23.6 -6.9,21.2 -22.7,34.2 -43.2,41.9 -1.9,0.7 -3.8,1.4 -5.9,2.1 3.3,5.6 3.3,5.6 6.9,4.2 12.8,-4.9 24.3,-11.8 33.9,-21.4 14.5,-14.6 20.7,-31.9 16.2,-52.3 -0.5,-2.3 -2.3,-5.5 -4.1,-6 -7.4,-2 -15.1,-3.1 -22.7,-4.5 z m -48.1,68.4 c -2.9,7.1 2.2,20.3 9.4,23.3 0.8,0.3 2.1,0.2 2.6,-0.3 0.4,-0.5 0.4,-1.9 0,-2.6 -3.9,-6.9 -8.1,-13.8 -12,-20.4 z M 290.7,592 c 3.8,8.4 9.4,11.7 17.8,11.4 6.5,-0.2 12,-4.2 14.4,-11 -10.6,8.7 -20.9,8.9 -32.2,-0.4 z m -1.4,57 c -2.4,5 -4.2,9.1 -6.3,13 -2.1,3.8 -4.6,7.5 -7.5,12.1 10.1,-1.5 16.3,-13.3 13.8,-25.1 z m 29,32.3 c -2.1,-8.3 -4.1,-16.2 -6,-23.8 -4.6,13.1 -2.4,22.6 6,23.8 z m -17.1,-23.5 c -2,7.8 -3.9,15.7 -5.9,23.6 8.3,-1.6 10.7,-12.1 5.9,-23.6 z"
   id="path19" />
	<path
   class="st3"
   d="m 221.2,459.7 c 10.9,5.2 18.7,13.8 24.9,23.7 16.9,26.6 9.9,60.5 -16.3,81.5 -22.7,18.2 -48.8,24.8 -77.3,24 -26.3,-0.7 -49.8,-8.8 -70.2,-25.8 -31.6,-26.5 -30.8,-70.9 0.1,-96.4 11.7,-9.7 24.6,-17 39.3,-21.1 1.6,-0.4 3.3,-0.5 4.9,-0.8 -1.3,0.6 -2.6,1.3 -4,1.7 -13,3.7 -24.7,9.9 -35.3,18.3 -2,1.6 -3.8,3.5 -5.6,5.2 0.3,0.6 0.6,1.1 0.9,1.7 3,-1.3 6.6,-2 8.9,-4.1 33.2,-30.1 100.2,-30.3 133.7,0.9 1.9,1.7 5,2.1 7.6,3.1 0.3,-0.6 0.6,-1.1 0.9,-1.7 -4.2,-3.3 -8.3,-6.8 -12.5,-10.2 z m -54.6,25 c -0.6,0.6 -1.6,1.1 -1.7,1.7 -0.2,1.2 -0.2,2.8 0.4,3.7 0.4,0.6 2.9,0.5 3.2,0.1 0.6,-1.1 0.6,-2.6 0.3,-3.9 -0.2,-0.7 -1.5,-1.1 -2.3,-1.6 6.8,-7.2 8,-7.1 11.7,0.5 0.1,0.2 0.5,0.2 1.2,0.3 0.9,-1.6 2,-3.3 2.9,-5 6,-11.4 14.6,-17.4 28,-13.7 1.4,0.4 2.9,0.1 5.2,0.1 -31.2,-25.9 -91.5,-22 -115.1,0.5 3,-0.4 5.2,-0.6 7.4,-1 10.6,-2.3 18.5,1.2 23.7,10.8 1.6,3 3.7,5.7 5.4,8.4 2,-2.5 3.8,-4.7 5.6,-6.9 2.8,2.2 4.9,3.8 6.1,4.8 -0.9,2.4 -1.6,4.1 -2,5.9 0,0.2 2.6,1.6 3.1,1.2 4.4,-3.7 4.6,0.3 5.9,2.8 0.5,1.1 1.3,2 2.5,3.8 1.2,-2.2 1.8,-3.7 2.7,-4.9 1.9,-2.7 3.9,-5.1 5.8,-7.6 z m 71,-2.4 c 0.1,-0.7 0.2,-1.4 0.3,-2.1 -8.4,-2.8 -16.9,-5.4 -26,-5.8 -8.2,-0.3 -14.1,2.9 -18.3,9.8 -6.5,10.5 -9.4,22.3 -12.7,34 -1.9,6.7 -4.6,13.7 -8.7,19.3 -8.1,10.9 -21.2,10.9 -29,-0.3 -4.2,-6.1 -6.2,-13.8 -8.9,-20.8 -4,-10.5 -7.4,-21.3 -11.9,-31.6 -2.3,-5.4 -6.8,-9.6 -13.3,-10.2 -10.7,-1 -20.8,1.6 -30.7,5.4 -0.3,0.1 -0.4,0.8 -1.2,2.7 7.1,-1.3 13.2,-2.3 19.3,-3.6 12,-2.6 19.7,0.4 24.3,11.7 4.5,11.1 7.3,22.8 10.8,34.2 0,0.1 -0.4,0.4 -0.8,0.8 -4.1,-3 -8.3,-5.9 -12.4,-9.1 -6.1,-4.7 -7.1,-2.9 -2.6,-11.3 0.3,-0.6 0.2,-1.4 0.4,-2.5 -3.4,2.1 -6.3,5.1 -9.3,5.2 -3,0.2 -6.2,-2.5 -11.1,-4.8 3.8,-2.9 6.6,-5.1 9.4,-7.3 -5,1.1 -9.1,4.1 -13.6,4.8 -4.5,0.7 -9.3,-1 -14.4,-1.7 -2.6,9.4 -1.5,18.5 2.3,27.3 7.9,18.2 23,28.2 40.5,35.8 3.8,1.6 6,0.8 7.5,-2.7 3.3,-7.3 6.5,-14.7 9.2,-20.8 4.3,3.9 9.2,8.5 14.3,12.9 4.5,3.9 9.3,3.5 13.6,-0.1 5.1,-4.2 9.8,-8.7 14.8,-13.2 0.6,2.2 1.1,5 2.2,7.5 2.2,5.2 4.6,10.3 7.3,15.2 0.7,1.2 3.5,2.4 4.7,1.9 16.4,-6.2 30.8,-15.3 40,-30.8 5.9,-10 7.9,-21 5.1,-32.8 -5,0.7 -9.9,2.5 -14.4,1.8 -4.6,-0.7 -8.8,-3.9 -13.2,-6 -0.4,0.5 -0.8,1 -1.2,1.5 2.9,2.3 5.8,4.7 8.5,6.8 -6.7,6.3 -12.8,5.5 -18.7,-0.4 0.7,2.6 1.7,4.5 2.4,6.5 0.4,1.1 0.6,3.1 0.1,3.5 -5.8,4.5 -11.7,8.7 -17.6,13.1 1.9,-9.9 4.6,-19 7.4,-28 4.9,-15.6 12.8,-24 32.3,-17.8 4.2,1.4 8.8,1.4 13.3,2 z M 92.9,489 c -0.1,-0.5 -0.2,-0.9 -0.3,-1.4 -7.9,1.5 -15.9,2.9 -23.8,4.7 -1.3,0.3 -2.7,2.3 -3.1,3.8 -3.8,13.4 -2.8,26.5 3.8,38.8 9.8,18.5 26.1,29.4 44.9,37 4.9,2 5.8,1.5 7.6,-4.3 -11.5,-3.4 -22,-8.7 -30.7,-16.9 C 77,537.2 68.6,521.3 71.1,501 c 0.4,-2.9 1.7,-4.3 4.3,-5.2 5.9,-2.2 11.7,-4.6 17.5,-6.8 z m 130.6,-1 c -0.1,0.3 -0.2,0.6 -0.3,0.9 0.9,0.5 1.8,1.1 2.8,1.5 5.1,2 10.3,3.7 15.3,6 1.5,0.7 3.4,2.7 3.4,4 -0.4,7.9 0.1,16.2 -2.3,23.6 -6.9,21.2 -22.7,34.2 -43.2,41.9 -1.9,0.7 -3.8,1.4 -5.9,2.1 3.3,5.6 3.3,5.6 6.9,4.2 12.8,-4.9 24.3,-11.8 33.9,-21.4 14.5,-14.6 20.7,-31.9 16.2,-52.3 -0.5,-2.3 -2.3,-5.5 -4.1,-6 -7.4,-2 -15.1,-3.1 -22.7,-4.5 z m -48.1,68.4 c -2.9,7.1 2.2,20.3 9.4,23.3 0.8,0.3 2.1,0.2 2.6,-0.3 0.4,-0.5 0.4,-1.9 0,-2.6 -3.9,-6.9 -8.1,-13.8 -12,-20.4 z M 141.7,498 c 3.8,8.4 9.4,11.7 17.8,11.4 6.5,-0.2 12,-4.2 14.4,-11 -10.6,8.7 -20.9,8.9 -32.2,-0.4 z m -1.4,57 c -2.4,5 -4.2,9.1 -6.3,13 -2.1,3.8 -4.6,7.5 -7.5,12.1 10.1,-1.5 16.3,-13.3 13.8,-25.1 z m 29,32.3 c -2.1,-8.3 -4.1,-16.2 -6,-23.8 -4.6,13.1 -2.4,22.6 6,23.8 z m -17.1,-23.5 c -2,7.8 -3.9,15.7 -5.9,23.6 8.3,-1.6 10.7,-12.1 5.9,-23.6 z"
   id="path21" />
	<path
   class="st3"
   d="m 214,710.5 c -2,5.3 -4.1,10.5 -5.8,15.8 -1,3.2 -3,3.7 -6,3.8 -3.1,0 -4.4,-1.2 -5.2,-4 -2.5,-8.4 -5.2,-16.8 -7.8,-25.2 7.3,-1.5 7.5,-1.3 9.3,5.2 1.3,4.7 2.8,9.4 4.3,14 0.4,0 0.9,0 1.3,0.1 2,-5.4 4,-10.8 5.8,-16.2 0.8,-2.5 1.8,-3.8 4.8,-3.8 3.1,0 4,1.5 4.8,3.9 1.8,5.4 3.8,10.7 7,16.1 1.5,-4.8 3.4,-9.6 4.4,-14.5 1.1,-5.3 3.9,-6.3 9.3,-4.5 -3,9.1 -5.8,18.3 -9.1,27.2 -0.4,1.1 -3.7,1.6 -5.6,1.5 -1.4,-0.1 -3.4,-1.5 -3.9,-2.8 -2.3,-5.4 -4.1,-11.1 -6.1,-16.6 -0.6,0 -1,0 -1.5,0 z"
   id="path23" />
	<path
   class="st2"
   d="m 370.2,553.7 c 4.2,3.4 8.3,6.9 12.5,10.3 -0.3,0.6 -0.6,1.1 -0.9,1.7 -2.6,-1 -5.7,-1.4 -7.6,-3.1 -33.5,-31.2 -100.4,-31 -133.7,-0.9 -2.3,2.1 -5.9,2.8 -8.9,4.1 -0.3,-0.6 -0.6,-1.1 -0.9,-1.7 1.9,-1.8 3.6,-3.7 5.6,-5.2 10.6,-8.4 22.3,-14.6 35.3,-18.3 1.4,-0.4 2.7,-1.1 4,-1.7 3.2,-0.4 6.3,-0.8 9.5,-1.3 11.9,-0.5 23.8,-1 35.7,-1.5 11.9,1.4 23.6,3.8 34.4,9.1 5.2,2.5 10,5.6 15,8.5 z"
   id="path25" />
	<path
   class="st3"
   d="m 319.4,729.5 c 0,-9.3 0,-18.7 0.1,-28.3 3.5,-1.4 6.2,-0.7 8.7,2.4 4,5 8.3,9.7 13.6,14.1 0,-5.4 0,-10.7 0,-15.9 6.8,-2.3 7.7,-1.7 7.7,4.5 0,6.2 0.1,12.3 -0.1,18.5 -0.1,1.9 -1.2,3.7 -1.8,5.5 -2.3,-0.8 -5.2,-1.1 -6.9,-2.7 -3.8,-3.7 -7,-8 -10.5,-12 -0.8,-0.9 -1.8,-1.7 -3.7,-3.5 0,5 0,8.8 0,12.5 -0.1,6.1 -0.4,6.3 -7.1,4.9 z"
   id="path27" />
	<path
   class="st3"
   d="m 166.4,699.8 c 14.6,-0.1 22.4,9 18.2,20.8 -1,2.8 -3.2,5.7 -5.7,7.1 -7.6,4.3 -15.7,4.2 -23.4,0.1 -5.5,-2.9 -7.7,-9.3 -6.3,-16.6 1.1,-5.4 6.4,-10 12.8,-11.1 1.7,-0.2 3.4,-0.3 4.4,-0.3 z m 0.7,25.7 c 6.3,0.1 11,-4.3 11,-10.3 0,-5.9 -4.3,-10.2 -10.5,-10.3 -6.4,-0.2 -10.8,4 -10.9,10.3 0,6 4.2,10.2 10.4,10.3 z"
   id="path29" />
	<path
   class="st3"
   d="m 382.1,706.1 c -4.6,0 -9.2,0 -14.2,0 0,2.2 0,4.1 0,6.9 3.2,0 6.5,0.2 9.7,0 3.4,-0.2 4.6,1.2 3.4,5.2 -2.9,0 -6.2,-0.3 -9.4,0.1 -1.5,0.2 -3.6,1.6 -3.9,2.8 -0.8,2.9 1.1,4.2 3.9,4.2 2.7,0 5.3,0.2 8,0 3.4,-0.2 4.6,1 3.5,4.8 -5.7,0 -11.5,0.2 -17.2,-0.1 -3.8,-0.2 -6,-2.7 -6,-6.7 0,-7.3 0,-14.6 0,-22.7 7.1,0 14,-0.1 20.8,0.2 0.9,0 1.7,2.6 2.6,4 -0.3,0.5 -0.8,0.9 -1.2,1.3 z"
   id="path31" />
	<path
   class="st3"
   d="m 389.7,724.5 c 4.8,0.7 7.8,1.6 10.6,1.4 1.8,-0.1 3.4,-2 5.1,-3 -1.3,-1.3 -2.3,-3 -3.9,-3.9 -1.8,-1.1 -4.5,-0.9 -6,-2.3 -2.2,-2 -4.9,-4.7 -5,-7.2 -0.1,-2.5 2.4,-6.6 4.6,-7.2 4.8,-1.4 10,-1.3 15.1,-1.3 0.9,0 1.8,2.7 3.5,5.4 -4.3,-0.4 -7.1,-1.1 -9.7,-0.8 -1.9,0.2 -3.6,1.7 -5.5,2.6 1.4,1.3 2.7,2.9 4.3,3.9 1.4,0.9 3.2,1 4.7,1.6 3.6,1.4 5.9,3.9 5.9,7.8 0,4.2 -2.1,7.8 -6.3,8.6 -4.5,0.8 -9.2,0.6 -13.7,0.1 -1,-0.3 -1.9,-3.1 -3.7,-5.7 z"
   id="path33" />
	<path
   class="st3"
   d="m 273,724.5 c 4.4,0.6 7.6,1.3 10.6,1.2 1.6,-0.1 3.1,-1.9 4.7,-2.9 -1.2,-1.4 -2.2,-3.1 -3.7,-4 -1.8,-1.1 -4.1,-1.4 -6.1,-2.2 -3.5,-1.4 -5.9,-4.2 -5,-7.7 0.7,-2.8 3.1,-6.5 5.5,-7.3 4.4,-1.4 9.4,-1.1 14.2,-0.9 1.1,0.1 2,2.8 3.6,5.2 -4.8,-0.2 -8.2,-0.7 -11.6,-0.4 -1.3,0.1 -2.4,1.7 -3.7,2.7 1.1,1.1 2,2.5 3.3,3.2 1.9,1 4.1,1.4 6.1,2.2 3.4,1.3 5.4,3.8 5.5,7.5 0.1,3.9 -1.6,7.4 -5.3,8.1 -4.9,0.9 -10.1,0.8 -15.1,0.4 -0.9,0 -1.7,-2.9 -3,-5.1 z"
   id="path35" />
	<path
   class="st3"
   d="m 418.5,705.9 c -1.3,-4.2 0.2,-5.3 3.8,-5.2 7,0.2 14,0.1 21,0.1 4.5,0 4.5,0.1 3.5,5 -0.1,0.1 -0.3,0.3 -0.4,0.3 -10,1 -10,1 -9.9,11.3 0,2.3 0,4.7 0,7 -0.1,6.7 -0.1,6.7 -7.6,5.6 0,-5.6 -0.3,-11.4 0.1,-17.1 0.3,-5 -0.9,-7.6 -6.4,-6.7 -1.3,0.1 -2.6,-0.2 -4.1,-0.3 z"
   id="path37" />
	<path
   class="st3"
   d="m 246,700.6 c 2.4,0 4.5,0 7.2,0 0,6.2 0.2,12.3 -0.1,18.4 -0.2,4.6 1.6,6.4 6.1,6.1 2.8,-0.2 5.6,0 8.6,0 1.2,2.8 1.7,5 -2.4,5 -4.3,0 -8.7,0 -13,-0.2 -3.6,-0.2 -6.3,-2 -6.4,-5.8 -0.2,-7.8 0,-15.5 0,-23.5 z"
   id="path39" />
	<path
   class="st3"
   d="m 320.8,536.1 c -11.9,0.5 -23.8,1 -35.7,1.5 3.2,-0.7 6.3,-2.1 9.5,-2.1 8.7,-0.2 17.5,0.3 26.2,0.6 z"
   id="path41" />
	<path
   class="st2"
   d="m 386.6,576.3 c -4.5,-0.6 -9.1,-0.6 -13.3,-2 -19.5,-6.3 -27.4,2.2 -32.3,17.8 -2.8,9 -5.5,18.1 -7.4,28 5.9,-4.3 11.8,-8.6 17.6,-13.1 0.6,-0.4 0.3,-2.4 -0.1,-3.5 -0.7,-2 -1.7,-3.8 -2.4,-6.5 6,5.9 12,6.7 18.7,0.4 -2.7,-2.1 -5.6,-4.5 -8.5,-6.8 0.4,-0.5 0.8,-1 1.2,-1.5 4.4,2.1 8.6,5.3 13.2,6 4.5,0.7 9.3,-1.1 14.4,-1.8 2.8,11.8 0.8,22.7 -5.1,32.8 -9.1,15.5 -23.6,24.5 -40,30.8 -1.2,0.5 -4,-0.7 -4.7,-1.9 -2.8,-4.9 -5.1,-10 -7.3,-15.2 -1.1,-2.5 -1.6,-5.3 -2.2,-7.5 -5,4.5 -9.7,9 -14.8,13.2 -4.3,3.6 -9.1,3.9 -13.6,0.1 -5.1,-4.4 -10,-9 -14.3,-12.9 -2.7,6.2 -5.9,13.5 -9.2,20.8 -1.6,3.5 -3.7,4.3 -7.5,2.7 -17.4,-7.5 -32.6,-17.6 -40.5,-35.8 -3.8,-8.7 -4.9,-17.8 -2.3,-27.3 5,0.7 9.9,2.4 14.4,1.7 4.5,-0.7 8.6,-3.7 13.6,-4.8 -2.8,2.2 -5.6,4.4 -9.4,7.3 4.9,2.3 8.1,5 11.1,4.8 3,-0.2 5.9,-3.2 9.3,-5.2 -0.2,1.1 -0.1,1.9 -0.4,2.5 -4.5,8.3 -3.5,6.6 2.6,11.3 4.1,3.1 8.3,6.1 12.4,9.1 0.5,-0.4 0.9,-0.7 0.8,-0.8 -3.5,-11.4 -6.4,-23.1 -10.8,-34.2 -4.6,-11.3 -12.3,-14.3 -24.3,-11.7 -6,1.3 -12.2,2.3 -19.3,3.6 0.8,-1.9 0.9,-2.6 1.2,-2.7 9.9,-3.8 20,-6.4 30.7,-5.4 6.5,0.6 11,4.8 13.3,10.2 4.5,10.3 7.8,21.1 11.9,31.6 2.7,7.1 4.7,14.8 8.9,20.8 7.7,11.1 20.9,11.2 29,0.3 4.1,-5.6 6.7,-12.6 8.7,-19.3 3.4,-11.7 6.3,-23.5 12.7,-34 4.2,-6.9 10.1,-10.1 18.3,-9.8 9.1,0.4 17.6,2.9 26,5.8 -0.1,0.7 -0.2,1.4 -0.3,2.1 z"
   id="path43" />
	<path
   class="st2"
   d="m 315.7,578.7 c -2,2.5 -4,5 -5.8,7.6 -0.9,1.3 -1.5,2.8 -2.7,4.9 -1.2,-1.7 -2,-2.7 -2.5,-3.8 -1.2,-2.5 -1.5,-6.6 -5.9,-2.8 -0.4,0.4 -3.1,-1 -3.1,-1.2 0.4,-1.8 1.1,-3.5 2,-5.9 -1.3,-1 -3.3,-2.6 -6.1,-4.8 -1.8,2.3 -3.6,4.4 -5.6,6.9 -1.7,-2.6 -3.8,-5.4 -5.4,-8.4 -5.3,-9.5 -13.1,-13.1 -23.7,-10.8 -2.2,0.5 -4.4,0.6 -7.4,1 23.6,-22.5 83.9,-26.4 115.1,-0.5 -2.3,0 -3.9,0.3 -5.2,-0.1 -13.4,-3.7 -22,2.3 -28,13.7 -0.9,1.7 -2,3.4 -2.9,5 -0.6,-0.2 -1.1,-0.2 -1.2,-0.3 -3.6,-7.6 -4.8,-7.7 -11.7,-0.5 -0.1,0.1 0.1,0 0.1,0 z m 12.9,-17.4 c -14.9,6.9 -28.7,6.5 -42.8,0.9 0.8,2.7 1.9,6.1 3.1,6.2 5.2,0.1 7,4.5 9.9,7.2 7.4,6.8 9,7 16.4,0 2.4,-2.3 4.6,-5.8 7.4,-6.4 4.1,-0.8 4.6,-3.3 6,-7.9 z"
   id="path45" />
	<path
   class="st2"
   d="m 241.9,583 c -5.9,2.2 -11.7,4.6 -17.6,6.7 -2.7,0.9 -4,2.3 -4.3,5.2 -2.4,20.4 5.9,36.3 20.2,49.7 8.8,8.2 19.3,13.5 30.7,16.9 -1.8,5.8 -2.6,6.3 -7.6,4.3 -18.8,-7.6 -35.1,-18.6 -44.9,-37 -6.5,-12.3 -7.6,-25.4 -3.8,-38.8 0.4,-1.5 1.8,-3.5 3.1,-3.8 7.9,-1.8 15.9,-3.2 23.8,-4.7 0.2,0.6 0.3,1 0.4,1.5 z"
   id="path47" />
	<path
   class="st2"
   d="m 372.5,582 c 7.6,1.4 15.3,2.5 22.7,4.5 1.8,0.5 3.6,3.7 4.1,6 4.5,20.4 -1.6,37.8 -16.2,52.3 -9.7,9.7 -21.2,16.6 -33.9,21.4 -3.6,1.4 -3.7,1.3 -6.9,-4.2 2,-0.7 4,-1.4 5.9,-2.1 20.5,-7.7 36.3,-20.7 43.2,-41.9 2.4,-7.3 1.9,-15.7 2.3,-23.6 0.1,-1.3 -1.9,-3.4 -3.4,-4 -5,-2.2 -10.2,-4 -15.3,-6 -1,-0.4 -1.9,-1 -2.8,-1.5 0.1,-0.3 0.2,-0.6 0.3,-0.9 z"
   id="path49" />
	<path
   class="st2"
   d="m 324.4,650.4 c 3.9,6.6 8.1,13.5 12.1,20.4 0.4,0.7 0.4,2.1 0,2.6 -0.5,0.5 -1.9,0.6 -2.6,0.3 -7.3,-3 -12.4,-16.2 -9.5,-23.3 z"
   id="path51" />
	<path
   class="st2"
   d="m 290.7,592 c 11.3,9.3 21.6,9.1 32.2,0.4 -2.4,6.8 -7.9,10.8 -14.4,11 -8.4,0.3 -14.1,-3 -17.8,-11.4 z"
   id="path53" />
	<path
   class="st2"
   d="m 289.3,649 c 2.5,11.8 -3.7,23.7 -13.9,25 2.9,-4.6 5.4,-8.2 7.5,-12.1 2.2,-3.8 4,-7.9 6.4,-12.9 z"
   id="path55" />
	<path
   class="st2"
   d="m 318.3,681.3 c -8.4,-1.2 -10.6,-10.7 -6,-23.8 1.9,7.7 3.9,15.6 6,23.8 z"
   id="path57" />
	<path
   class="st2"
   d="m 301.2,657.8 c 4.8,11.5 2.4,22.1 -5.9,23.6 1.9,-7.9 3.9,-15.8 5.9,-23.6 z"
   id="path59" />
	<path
   class="st2"
   d="m 315.5,578.8 c 0.8,0.5 2.1,0.9 2.3,1.6 0.3,1.2 0.3,2.8 -0.3,3.9 -0.2,0.5 -2.8,0.5 -3.2,-0.1 -0.6,-0.9 -0.6,-2.5 -0.4,-3.7 0.1,-0.6 1.1,-1.2 1.7,-1.7 0.1,-0.1 -0.1,0 -0.1,0 z"
   id="path61" />
	<path
   class="st2"
   d="m 167.1,725.5 c -6.2,-0.1 -10.4,-4.3 -10.3,-10.3 0,-6.3 4.4,-10.5 10.9,-10.3 6.2,0.2 10.5,4.4 10.5,10.3 -0.2,6.1 -4.9,10.5 -11.1,10.3 z"
   id="path63" />
	<path
   class="st3"
   d="m 328.6,561.3 c -1.4,4.6 -1.9,7 -6,7.9 -2.8,0.6 -5,4.1 -7.4,6.4 -7.5,7 -9,6.8 -16.4,0 -2.9,-2.7 -4.7,-7 -9.9,-7.2 -1.2,0 -2.3,-3.5 -3.1,-6.2 14.1,5.6 27.9,6 42.8,-0.9 z"
   id="path65" />
	<g
   class="st3"
   id="g68">
		
			<image
   style="overflow:visible"
   width="1158"
   height="1263"
   id="_x31_t5nO8"
   xlink:href="file:///tmp/mozilla_boes0/58F8537AECE79F5E.jpg"
   transform="matrix(0.24,0,0,0.24,29,25)">
		</image>
	</g>
	<g
   class="st3"
   id="g71">
		
			<image
   style="overflow:visible"
   width="400"
   height="400"
   id="_x35_FYkRZ"
   xlink:href="file:///tmp/mozilla_boes0/58F8537AECE79F5D.jpg"
   transform="rotate(-0.05149461,448800.21,-0.02994498)">
		</image>
	</g>
	<path
   class="st4"
   d="m 747.1,545.3 c -0.1,0 -0.2,0.1 -0.3,0.1 0,-0.1 0,-0.2 0,-0.3 z"
   id="path73" />
	<path
   class="st4"
   d="m 159,431 c 0,0 4,7 4,9 0,0 6,-8 7,-9 0,0 -4,0 -5,-1 0,0 -3,1 -6,1 z"
   id="path75" />
	<path
   class="st4"
   d="M 163,431"
   id="path77" />
	<path
   class="st3"
   d="m 847,149 c 0,0 3,20 6,26 v -33 c 0,0 -6,1 -6,7 z"
   id="path79" />
</g>
<g
   id="Layer_2"
   transform="translate(-316.9,-105)">
	<path
   class="st5"
   d="m 1301.7,287.4 h 28.8 V 254.9 191.1 105 h -50.2 v 128.9 h -175.4 l -2.5,-2.5 -2.7,2.5 H 628.3 l -2.7,-2.5 -2.5,2.5 H 447.7 V 105 h -50.2 v 86.1 63.8 32.5 h 28.8 C 359,349.9 316.9,439.1 316.9,538.1 c 0,188.8 153.1,341.9 342,341.9 77,0 148,-25.4 205.1,-68.4 57.2,42.9 128.2,68.4 205.1,68.4 188.8,0 341.9,-153.1 341.9,-341.9 0.1,-99 -42,-188.2 -109.3,-250.7 z m -259.2,0 L 864,454.1 685.5,287.4 Z m -435.1,0 L 864,527 1120.6,287.3 h 106.8 l -79.4,74.2 -20.3,19 -8.5,7.8 -7.7,7.2 -112.7,105.4 -31,29 -13,12.1 -15,14 -24.8,23.2 -51,47.6 -51,-47.6 -24.8,-23.2 -15,-14 -12.9,-12.1 -31,-29 -112.8,-105.3 -7.7,-7.2 -8.5,-7.8 -20.3,-19 -79.4,-74.2 z M 864,749.3 c -37.1,-32.6 -66.3,-74.1 -84.2,-121.2 2.7,-2.8 5.4,-5.8 7.9,-8.8 l 76.2,71.2 76.2,-71.2 c 2.5,3 5.2,5.9 7.9,8.8 -17.7,47.2 -46.9,88.6 -84,121.2 z M 728.2,563.9 c 1.1,15.1 3.2,29.9 6.2,44.3 -17.2,15.1 -38.9,24.5 -63.8,24.5 -92.3,0 -139.3,-44.5 -139.3,-111.8 0,-39.6 15.6,-76.5 42.8,-101 z m 425.6,-144 c 27.2,24.5 42.8,61.5 42.8,101 0,67.3 -47,111.8 -139.3,111.8 -24.9,0 -46.6,-9.4 -63.8,-24.5 3,-14.5 5.1,-29.2 6.2,-44.3 z M 662.5,825.3 c -168.7,0 -305.4,-136.8 -305.4,-305.4 0,-85.2 34.8,-162.2 91.1,-217.5 l 93.5,87.3 c -23.5,22.7 -40.4,52.1 -47.6,85.2 -8.2,20.7 -12.5,43.4 -12.5,66.8 0,84.6 59.3,140.6 175.2,140.6 14.6,0 28.4,-2.6 41.1,-7.3 17.8,-4.2 34.5,-11.3 49.6,-20.6 16.9,46.9 43.8,89 78.1,123.8 -47.1,29.8 -103.1,47.1 -163.1,47.1 z m 403,0 c -60,0 -116,-17.3 -163.1,-47.2 34.3,-34.9 61.2,-77 78.1,-123.8 15.1,9.4 31.8,16.4 49.6,20.6 12.7,4.7 26.5,7.3 41.1,7.3 116,0 175.2,-56 175.2,-140.6 0,-23.5 -4.4,-46.2 -12.5,-66.8 -7.2,-33.1 -24.1,-62.5 -47.6,-85.2 l 93.5,-87.3 c 56.3,55.3 91.1,132.4 91.1,217.5 0,168.7 -136.7,305.5 -305.4,305.5 z"
   id="path82"
   style="fill:#909085;fill-opacity:1" />
</g>
</svg>
